<?xml version="1.0" encoding="UTF-8"?>
<svg width="512" height="512" viewBox="0 0 512 512" xmlns="http://www.w3.org/2000/svg">
  <!-- Background circle with gradient -->
  <defs>
    <linearGradient id="bgGradient" x1="0%" y1="0%" x2="100%" y2="100%">
      <stop offset="0%" style="stop-color:#6C63FF;stop-opacity:1" />
      <stop offset="100%" style="stop-color:#4F46E5;stop-opacity:1" />
    </linearGradient>
    <filter id="shadow" x="-20%" y="-20%" width="140%" height="140%">
      <feDropShadow dx="4" dy="8" stdDeviation="8" flood-color="#000000" flood-opacity="0.3"/>
    </filter>
  </defs>
  
  <!-- Main background -->
  <circle cx="256" cy="256" r="240" fill="url(#bgGradient)" filter="url(#shadow)"/>
  
  <!-- Inner white circle for contrast -->
  <circle cx="256" cy="256" r="200" fill="#FFFFFF" opacity="0.1"/>
  
  <!-- Brain/AI Icon -->
  <g transform="translate(256,256)">
    <!-- Main brain outline -->
    <path d="M-80,-60 C-100,-80 -120,-60 -120,-30 C-120,0 -110,20 -90,30 L90,30 C110,20 120,0 120,-30 C120,-60 100,-80 80,-60 L80,-40 C60,-50 40,-55 0,-55 C-40,-55 -60,-50 -80,-40 Z" 
          fill="#FFFFFF" stroke="none"/>
    
    <!-- Brain folds/details -->
    <path d="M-60,-20 Q-40,-35 -20,-20 Q0,-5 20,-20 Q40,-35 60,-20" 
          stroke="#6C63FF" stroke-width="3" fill="none" stroke-linecap="round"/>
    <path d="M-50,0 Q-30,-10 -10,0 Q10,10 30,0 Q50,-10 70,0" 
          stroke="#6C63FF" stroke-width="3" fill="none" stroke-linecap="round"/>
    
    <!-- Neural connections/dots -->
    <circle cx="-40" cy="-15" r="4" fill="#6C63FF"/>
    <circle cx="0" cy="-25" r="4" fill="#6C63FF"/>
    <circle cx="40" cy="-15" r="4" fill="#6C63FF"/>
    <circle cx="-20" cy="5" r="4" fill="#6C63FF"/>
    <circle cx="25" cy="5" r="4" fill="#6C63FF"/>
    
    <!-- Connection lines -->
    <line x1="-40" y1="-15" x2="0" y2="-25" stroke="#6C63FF" stroke-width="2" opacity="0.6"/>
    <line x1="0" y1="-25" x2="40" y2="-15" stroke="#6C63FF" stroke-width="2" opacity="0.6"/>
    <line x1="-40" y1="-15" x2="-20" y2="5" stroke="#6C63FF" stroke-width="2" opacity="0.6"/>
    <line x1="40" y1="-15" x2="25" y2="5" stroke="#6C63FF" stroke-width="2" opacity="0.6"/>
  </g>
  
  <!-- Camera lens element -->
  <g transform="translate(256,330)">
    <circle cx="0" cy="0" r="35" fill="#FFFFFF" opacity="0.9"/>
    <circle cx="0" cy="0" r="25" fill="#6C63FF"/>
    <circle cx="0" cy="0" r="15" fill="#FFFFFF"/>
    <circle cx="0" cy="0" r="8" fill="#6C63FF"/>
    
    <!-- Lens reflection -->
    <ellipse cx="-8" cy="-8" rx="6" ry="12" fill="#FFFFFF" opacity="0.4"/>
  </g>
  
  <!-- Subtle highlight on top -->
  <ellipse cx="200" cy="150" rx="60" ry="30" fill="#FFFFFF" opacity="0.2"/>
</svg>
